PathFileType	4	(X/Y/Z)	Patient4_TMGait_0pt7_01_right_29.trc.trc
DataRate	CameraRate	NumFrames	NumMarkers	Units	OrigDataRate	OrigDataStartFrame	OrigNumFrames
85.365853658537	85.365853658537	4	33	mm	85.365853658537	71	       141
Frame#	Time	Sacral			L.Shoulder			Chest			R.Shoulder			Neck			R.ASIS			L.ASIS			R.Thigh.Superior			R.Thigh.Lateral			R.Thigh.Inferior			R.Patella			L.Thigh.Superior			L.Thigh.Lateral			L.Thigh.Inferior			L.Patella			L.Shank.Superior			L.Shank.Lateral			L.Shank.Inferior			R.Shank.Superior			R.Shank.Lateral			R.Shank.Inferior			R.Heel			R.Midfoot.Superior			R.Midfoot.Lateral			R.Toe			L.Heel			L.Midfoot.Lateral			L.Midfoot.Superior			L.Toe			L.Elbow			L.Wrist			R.Elbow			R.Wrist			
		X1	Y1	Z1	X2	Y2	Z2	X3	Y3	Z3	X4	Y4	Z4	X5	Y5	Z5	X6	Y6	Z6	X7	Y7	Z7	X8	Y8	Z8	X9	Y9	Z9	X10	Y10	Z10	X11	Y11	Z11	X12	Y12	Z12	X13	Y13	Z13	X14	Y14	Z14	X15	Y15	Z15	X16	Y16	Z16	X17	Y17	Z17	X18	Y18	Z18	X19	Y19	Z19	X20	Y20	Z20	X21	Y21	Z21	X22	Y22	Z22	X23	Y23	Z23	X24	Y24	Z24	X25	Y25	Z25	X26	Y26	Z26	X27	Y27	Z27	X28	Y28	Z28	X29	Y29	Z29	X30	Y30	Z30	X31	Y31	Z31	X32	Y32	Z32	X33	Y33	Z33	

71	33.680000000000	816.889307960668	997.667507623964	534.446699155577	975.164518510885	1419.602409228218	332.936570211722	1097.600521919739	1346.203323815527	477.897362320116	1042.302201814175	1427.287904026631	658.515480298185	1002.514138253457	1480.208745906869	486.651509785706	1046.410251986810	932.183277798826	638.230760608890	1017.987933986262	941.139769702172	361.602296681883	1036.207759533278	718.106306528139	618.351388165816	926.629754969822	629.779448061928	681.836242907868	983.397070553155	560.162380803357	603.117262846690	960.254275460866	475.810902021326	608.223046835548	1097.472134277554	767.791859362503	405.228619396193	1057.944260194312	635.129923969093	326.816795817564	1160.191223850158	581.790616657292	394.008890227044	1188.834855248421	518.025258261086	393.080213201492	1177.356589168598	444.962555366672	381.678349544514	1121.194978884178	310.388242931831	332.362438428011	1213.886839372901	218.586092515894	390.626708266505	919.532244648377	393.499201731477	616.410809625110	833.899817503132	302.589119168222	680.027243085158	859.785931131176	201.925297558556	616.767098156597	706.370941651082	45.699621560380	587.020951789438	878.305081951191	97.134199503137	625.845300536613	787.974581565860	37.778405220427	662.822209795346	996.715731739958	40.343794515712	656.921289335712	1141.520798360505	39.618768746450	432.330016432059	1215.779009847844	44.981967896239	352.478641192023	1284.471398751366	122.514135941549	373.359505588833	1418.728681593492	94.917556623831	348.760168426869	798.934241441041	1113.354891373624	259.345118839453	730.373723644410	862.732364758709	287.482958488325	1217.416556432132	1142.473264475389	759.922157172442	1422.438749230673	1248.027857955022	659.982842807811	
72	33.691714285714	818.749742661282	995.571017073560	531.242539418618	975.022544588946	1418.006549753465	330.332044524104	1097.417647792035	1345.516409084160	475.784231427965	1040.768043623889	1426.215634307589	656.074267640619	1001.273099468936	1478.832237135394	484.185324040765	1047.767447066119	930.534665255212	636.428667744564	1020.789900525668	939.209649626744	359.830624157973	1037.046677285639	716.279128213031	617.059000680120	926.635152247133	628.467907477489	680.152668243821	983.427115897181	558.296256023833	601.865968058713	959.381750586781	473.345346176395	606.880211429674	1099.742900645401	764.620130404620	403.269966333218	1057.799465308056	631.800517699767	326.295541765810	1160.431870951190	578.524732713818	392.952047120774	1187.482447487500	513.882476225690	392.949568550786	1175.716490700861	440.777370261498	381.678998992840	1117.974695902914	306.664997775636	333.168596173785	1209.610255259763	214.230581753051	391.820708489150	917.192573214892	391.628328135259	615.336247918671	829.881475456387	302.364565426281	679.246855329563	853.780635696402	201.114616907524	616.381916898644	698.139879701002	46.243803121516	587.245082407122	870.317928416641	97.110521416502	625.882414290075	779.810653298828	37.955730602990	662.969803024273	988.611946079646	40.156241069259	657.079929782682	1134.023181970761	38.182628671584	434.574749928330	1207.476971472437	41.975778577819	353.745482202214	1278.817130994460	116.759190869478	374.778682494978	1412.052230971456	84.873946174626	348.355702113348	798.615356336402	1112.210138121347	257.591000752966	728.847100384226	861.984255256135	287.343046503045	1221.174329343126	1144.916272870553	755.198171938709	1421.105611069644	1258.187052774772	654.153530841014	
73	33.703428571429	820.528444042550	993.628334933574	527.996292977085	975.013982795386	1416.432566755891	327.521913632765	1097.326266419110	1344.862198047199	473.528961470608	1039.369580779051	1425.300181944392	653.486309696704	1000.198229372820	1477.590448088941	481.458969104611	1049.108674607070	928.946922881757	634.451303493310	1023.477255037441	937.560645100046	357.962559544369	1038.199749487890	714.560315234777	615.542801398284	927.169435506136	627.084299325541	678.239740865416	984.165180978171	556.416561418349	600.418973281891	959.344083357317	470.666796655489	605.434241531106	1102.143147562872	762.034599772452	401.245301914144	1058.119027691712	629.196584748410	325.568785638246	1161.017433628989	575.958229522987	391.900957124737	1186.470339838234	510.379795991422	392.793689905810	1174.402419026555	437.134839871264	381.618242872021	1115.129732913614	303.611940737413	333.441143357852	1205.215723696446	210.335216115732	392.831327768577	915.453133862346	389.675154142507	614.149515370970	826.297837139261	302.276387112689	678.339574845343	848.073153589030	200.401857884273	615.971889848840	689.948576650727	47.194787897680	587.558962595891	862.484589733940	97.104394392398	625.939282419437	771.696567199669	38.311462472043	663.165962736265	980.537768837137	39.941606562665	657.214648320116	1125.819129288317	37.226139121546	436.167602710713	1198.740337349071	39.502351037513	354.630586005489	1272.684826797765	111.474947169728	376.153605357538	1404.930275451683	75.248794855547	348.369017133688	799.253944959407	1110.465209273943	255.445374092621	728.677576941035	860.528133387560	286.610700133334	1223.984890305036	1146.955231631332	751.034372131266	1418.999100924432	1266.982049286203	648.837599650510	
74	33.715142857143	822.158818825051	991.935487977683	524.753156221428	975.130493912792	1414.968703521570	324.534532959907	1097.320352838482	1344.300092757089	471.139738319144	1038.154123449608	1424.622335100428	650.765397248197	999.324911771931	1476.563684122912	478.493481972391	1050.386222767280	927.520380628300	632.282028267948	1025.964586004521	936.285302824798	355.975036133424	1039.636282817432	713.041708978585	613.767880708817	928.253708709552	625.690580399983	676.107962995382	985.647044207707	554.603344119423	598.780760462999	960.228455794949	467.830939924673	603.955388621544	1104.617893994337	760.179166447542	399.169985621962	1058.936744524868	627.451844597715	324.575346958404	1161.918119389239	574.182934426790	390.808750183177	1185.829598828077	507.664910032672	392.519956169522	1173.455012145025	434.179335739431	381.422877338870	1112.758421248225	301.341700607109	333.136834966717	1200.854213027525	207.067596076231	393.597377558385	914.360224861216	387.716336256873	612.894739147312	823.189532649932	302.436901874285	677.328424074686	842.735715207451	199.894650063629	615.568541643781	681.849864142422	48.747351647738	587.960554830039	854.882278453819	97.143363927089	626.033425077271	763.661744696354	38.953894818641	663.406036786508	972.484233552346	39.673741067267	657.305435383755	1117.297553791360	36.711317024708	437.153101968665	1189.931751499865	37.628507613208	355.160353243845	1266.250939180750	106.947548163427	377.394084759049	1397.592365429643	66.678703779993	348.702807888751	800.852202396693	1108.197437346935	252.917025227129	729.915144968972	858.411469483463	285.242657202637	1225.820542509594	1148.518470700157	747.480283430320	1416.206020366953	1274.348383298775	644.085305742788	
